# AST/ASF file generated using VICON BodyLanguage
# -----------------------------------------------
:version 1.10
:name VICON
:units
  mass 1.0
  length 0.45
  angle deg
:documentation
   .ast/.asf automatically generated from VICON data using
   VICON BodyBuilder and BodyLanguage model FoxedUp or BRILLIANT.MOD
:root
   order TX TY TZ RX RY RZ
   axis XYZ
   position 0 0 0  
   orientation 0 -0 0 
:bonedata
  begin
     id 1 
     name lhipjoint
     direction 0.432694 -0.693742 0.575759 
     length 2.19277 
     axis 0 -0 0  XYZ
  end
  begin
     id 2 
     name lfemur
     direction 0.34202 -0.939693 0  
     length 6.69022  
     axis 0 -0 20  XYZ
    dof rx ry rz
    limits (-160.0 20.0)
           (-70.0 70.0)
           (-60.0 70.0)
  end
  begin
     id 3 
     name ltibia
     direction 0.34202 -0.939693 0   
     length 6.50337   
     axis 0 -0 20   XYZ
    dof rx
    limits (-10.0 170.0)
  end
  begin
     id 4 
     name lfoot
     direction 0.158999 -0.435969 0.885805   
     length 2.70564   
     axis -90 -1.13533e-015 20   XYZ
    dof rx rz
    limits (-45.0 90.0)
           (-70.0 20.0)
  end
  begin
     id 5 
     name ltoes
     direction -0.00592919 0.00964381 0.999936   
     length 1.29929   
     axis -90 -1.13533e-015 20   XYZ
    dof rx
    limits (-90.0 20.0)
  end
  begin
     id 6 
     name rhipjoint
     direction -0.414359 -0.700339 0.581234   
     length 2.17212  
     axis 0 -0 0  XYZ 
  end
  begin
     id 7 
     name rfemur
     direction -0.34202 -0.939693 0   
     length 7.17659   
     axis 0 -0 -20   XYZ
    dof rx ry rz
    limits (-160.0 20.0)
           (-70.0 70.0)
           (-70.0 60.0)
  end
  begin
     id 8 
     name rtibia
     direction -0.34202 -0.939693 0   
     length 6.36669   
     axis 0 -0 -20   XYZ
    dof rx
    limits (-10.0 170.0)
 end
 begin
     id 9 
     name rfoot
     direction -0.137064 -0.37658 0.916188   
     length 2.22351  
     axis -90 1.13533e-015 -20   XYZ
    dof rx rz
    limits (-45.0 90.0)
           (-20.0 70.0)
  end
  begin
     id 10 
     name rtoes
     direction -0.000784077 -0.00289101 0.999996   
     length 1.09522   
     axis -90 1.13533e-015 -20   XYZ
    dof rx
    limits (-90.0 20.0)
  end
  begin
     id 11 
     name lowerback
     direction -0.0176242 0.984912 -0.172157   
     length 1.65301   
     axis 0 -0 0   XYZ
    dof rx ry rz
    limits (-20.0 45.0)
           (-30.0 30.0)
           (-30.0 30.0)
  end
  begin
     id 12 
     name upperback
     direction -0.00218128 0.998776 -0.0494072   
     length 1.67776   
     axis 0 -0 0   XYZ
    dof rx ry rz
    limits (-20.0 45.0)
           (-30.0 30.0)
           (-30.0 30.0)
  end
  begin
     id 13 
     name thorax
     direction 0.00544186 0.999658 0.0255711   
     length 1.72293   
     axis 0 -0 0   XYZ
    dof rx ry rz
    limits (-20.0 45.0)
           (-30.0 30.0)
           (-30.0 30.0)
  end
  begin
     id 14 
     name lowerneck
     direction -0.105325 0.983841 0.144785   
     length 2.14226   
     axis 0 -0 0   XYZ
    dof rx ry rz
    limits (-20.0 45.0)
           (-30.0 30.0)
           (-30.0 30.0)
  end
  begin
     id 15 
     name upperneck
     direction 0.0547957 0.988053 -0.144041   
     length 2.17508   
     axis 0 -0 0   XYZ
    dof rx ry rz
    limits (-20.0 45.0)
           (-30.0 30.0)
           (-30.0 30.0)
  end
  begin
     id 16
     name head
     direction 0.0247488 0.997534 -0.0656813  
     length 2.20048  
     axis 0 -0 0   XYZ
    dof rx ry rz
    limits (-20.0 45.0)
           (-30.0 30.0)
           (-30.0 30.0)
  end
  begin
     id 17 
     name lclavicle
     direction 0.820559 0.567247 -0.0701026  
     length 4.09615  
     axis 0 -0 0   XYZ
    dof ry rz
    limits (-20.0 10.0)
           (0.0 20.0)
  end
  begin
     id 18 
     name lhumerus
     direction 0.999977 -0.0067566 -9.96392e-005   
     length 4.59333   
     axis -180 -30 -90   XYZ
    dof rx ry rz
    limits (-60.0 90.0)
           (-90.0 90.0)
           (-90.0 90.0)
  end
  begin
     id 19
     name lradius
     direction 1 -4.48982e-011 -2.53425e-027   
     length 2.81151   
     axis -180 -30 -90   XYZ
    dof rx
    limits (-10.0 170.0)
  end
  begin
     id 20
     name lwrist
     direction 1 -4.48939e-011 -7.39254e-028   
     length 1.40576   
     axis 2.56395e-016 90 90   XYZ
    dof ry
    limits (-180.0 0.0)
 end
  begin
     id 21 
     name lhand
     direction 1 -4.48939e-011 -1.47851e-027   
     length 0.895651   
     axis 9.43423e-016 90 90   XYZ
    dof rx rz
    limits (-90.0 90.0)
           (-45.0 45.0)
  end
  begin
     id 22 
     name lfingers
     direction 1 -4.48978e-011 -2.95702e-027   
     length 0.722097   
     axis 1.88685e-015 90 90   XYZ
    dof rx
    limits (0.0 90.0)
  end
  begin
     id 23
     name lthumb
     direction 0.707107 -6.34931e-011 0.707107   
     length 1.03679   
     axis -90 45 -9.86935e-015   XYZ
    dof rx rz
    limits (-45.0 45.0)
           (-45.0 45.0)
  end
  begin
     id 24 
     name rclavicle
     direction -0.831414 0.553102 -0.0531864   
     length 4.24872  
     axis 0 -0 0   XYZ 
    dof ry rz
    limits (-10.0 20.0)
           (-20.0 0.0)
  end
  begin
     id 25 
     name rhumerus
     direction -0.999916 -0.000939607 0.0129331  
     length 4.74834   
     axis -180 30 90   XYZ
    dof rx ry rz
    limits (-90.0 60.0)
           (-90.0 90.0)
           (-90.0 90.0)
  end
  begin
     id 26 
     name rradius
     direction -1 -4.48956e-011 -1.31752e-027   
     length 2.79907   
     axis -180 30 90   XYZ
    dof rx
    limits (-10.0 170.0)
  end
  begin
     id 27 
     name rwrist
     direction -1 -4.4897e-011 -7.39254e-028   
     length 1.39954   
     axis 2.56395e-016 -90 -90   XYZ
    dof ry
    limits (-180.0 0.0)
  end
  begin
     id 28
     name rhand
     direction -0.999997 -0.00250697 0.000800838   
     length 0.953304   
     axis 9.43423e-016 -90 -90   XYZ
    dof rx rz
    limits (-90.0 90.0)
           (-45.0 45.0)
  end
  begin
     id 29
     name rfingers
     direction -1 -4.48954e-011 -2.95702e-027   
     length 0.763342   
     axis 1.88685e-015 -90 -90   XYZ
    dof rx
    limits (0.0 90.0)
  end
  begin
     id 30
     name rthumb
     direction -0.709701 -0.00217037 0.7045   
     length 1.10115   
     axis -90 -45 9.86935e-015   XYZ
    dof rx rz
    limits (-45.0 45.0)
           (-45.0 45.0)
  end
:hierarchy
  begin
    root lhipjoint rhipjoint lowerback
    lhipjoint lfemur
    lfemur ltibia
    ltibia lfoot
    lfoot ltoes
    rhipjoint rfemur
    rfemur rtibia
    rtibia rfoot
    rfoot rtoes
    lowerback upperback
    upperback thorax
    thorax lowerneck lclavicle rclavicle
    lowerneck upperneck
    upperneck head
    lclavicle lhumerus
    lhumerus lradius
    lradius lwrist
    lwrist lhand lthumb
    lhand lfingers
    rclavicle rhumerus
    rhumerus rradius
    rradius rwrist
    rwrist rhand rthumb
    rhand rfingers
  end

#!OML:ASF G:\ViconDB\ViconDB\414\test\team2\shane.ASF
:FULLY-SPECIFIED
:DEGREES
113
root 4.78155 14.4776 -18.1072 0.182329 1.44252 -2.74171
lowerback 21.5958 0.520639 1.66462
upperback 8.8846 1.15693 3.36069
thorax -2.43102 0.547282 2.37743
lowerneck -23.5248 -3.04677 -5.01501
upperneck -3.97705 -3.04495 9.38132
head 2.67298 -1.00371 3.48251
rclavicle 1.70955e-014 3.02153e-014
rhumerus 6.67075 12.8792 292.352
rradius 53.2369
rwrist 19.8567
rhand -30.4925 -13.0295
rfingers 7.12502
rthumb -3.79309 -42.9755
lclavicle 7.55382e-015 -1.27222e-014
lhumerus -135.355 -175.862 207.218
lradius 58.1669
lwrist -1.79772
lhand -46.3553 9.50878
lfingers 7.12502
lthumb -19.0874 38.5922
rfemur -32.4388 -18.77 11.4977
rtibia 80.5956
rfoot -29.4485 -7.05711
rtoes -22.9445
lfemur -30.0441 18.2428 -7.71915
ltibia 78.3882
lfoot -43.5005 -10.6014
ltoes -20.0268
114
root 4.77625 14.399 -18.0621 -0.181895 1.68096 -2.78469
lowerback 21.4893 0.471623 1.3595
upperback 9.20849 1.02223 3.40167
thorax -2.02835 0.472873 2.62828
lowerneck -23.4307 -2.96011 -5.11852
upperneck -4.176 -2.89695 9.47954
head 2.5932 -0.930086 3.54467
rclavicle 6.75868e-015 1.59028e-014
rhumerus 3.71977 11.3299 288.853
rradius 46.1624
rwrist 21.854
rhand -29.7077 -12.7243
rfingers 7.12502
rthumb -3.03522 -42.6825
lclavicle 7.55382e-015 -1.27222e-014
lhumerus -135.355 -175.862 207.218
lradius 58.1669
lwrist -1.79772
lhand -46.3553 9.50878
lfingers 7.12502
lthumb -19.0874 38.5922
rfemur -32.092 -18.7593 11.1501
rtibia 81.495
rfoot -29.9948 -7.12592
rtoes -23.897
lfemur -29.9931 18.2684 -7.40174
ltibia 79.456
lfoot -43.9508 -10.8368
ltoes -20.1789
115
root 4.77178 14.3296 -18.0099 -0.326486 1.9556 -2.80652
lowerback 21.4657 0.46433 1.05727
upperback 9.09582 0.961316 3.43001
thorax -2.1417 0.436383 2.84442
lowerneck -22.9211 -2.84039 -5.247
upperneck -3.99257 -2.73921 9.56117
head 2.57309 -0.855881 3.60439
rclavicle -7.55382e-015 0
rhumerus 0.130348 8.69057 285.819
rradius 39.3082
rwrist 25.7087
rhand -28.8126 -12.8813
rfingers 7.12502
rthumb -2.17069 -42.85
lclavicle -7.55382e-015 0
lhumerus -172.407 -145.458 249.018
lradius 38.8789
lwrist -5.38183
lhand -42.1967 9.03697
lfingers 7.12502
lthumb -15.0846 38.4673
rfemur -31.8269 -18.6461 10.8604
rtibia 82.216
rfoot -30.5496 -7.22133
rtoes -24.6
lfemur -30.0862 18.0825 -7.22702
ltibia 80.4129
lfoot -44.3717 -10.5327
ltoes -20.824
116
root 4.77548 14.2765 -17.9502 -0.297161 2.20059 -2.94037
lowerback 21.3294 0.378967 1.12755
upperback 8.80725 0.86766 3.33372
thorax -2.37968 0.395853 2.72109
lowerneck -22.4844 -2.73726 -5.20762
upperneck -3.46365 -2.66589 9.58549
head 2.67038 -0.820495 3.61017
rclavicle -1.59028e-015 -2.62396e-014
rhumerus -3.6214 3.34006 283.085
rradius 32.4427
rwrist 34.4639
rhand -28.3245 -12.706
rfingers 7.12502
rthumb -1.69936 -42.679
lclavicle -1.59028e-015 -2.62396e-014
lhumerus -178.036 -144.214 253.331
lradius 34.5658
lwrist -9.80557
lhand -39.8682 7.44607
lfingers 7.12502
lthumb -12.8408 37.0311
rfemur -31.7129 -18.8005 10.8174
rtibia 82.7796
rfoot -31.0212 -7.42451
rtoes -24.8631
lfemur -30.3085 17.9403 -7.08622
ltibia 81.1704
lfoot -44.661 -10.042
ltoes -21.306
117
root 4.77779 14.2439 -17.8896 -0.171528 2.10361 -3.16014
lowerback 21.063 0.43003 1.09075
upperback 8.51207 0.928162 3.33212
thorax -2.56792 0.426565 2.72534
lowerneck -22.1675 -2.66397 -5.29529
upperneck -2.77006 -2.60504 9.55833
head 2.83491 -0.78735 3.61945
rclavicle -8.54774e-015 -2.06736e-014
rhumerus -7.58673 -4.76892 281.883
rradius 26.6198
rwrist 47.0435
rhand -28.632 -11.1759
rfingers 7.12502
rthumb -1.9963 -41.1463
lclavicle -8.54774e-015 -2.06736e-014
lhumerus -183.734 -144.312 257.675
lradius 30.2167
lwrist -16.7932
lhand -37.7347 5.34604
lfingers 7.12502
lthumb -10.7834 35.0492
rfemur -31.7514 -18.6171 11.0714
rtibia 83.1577
rfoot -31.3462 -7.70491
rtoes -24.3793
lfemur -30.3868 18.09 -6.75293
ltibia 81.73
lfoot -44.8307 -10.0474
ltoes -21.7334
118
root 4.78251 14.2322 -17.8162 -0.057413 2.19864 -3.42756
lowerback 20.7028 0.383261 1.24163
upperback 8.19886 0.895829 3.31479
thorax -2.72 0.41549 2.62687
lowerneck -21.9491 -2.63183 -5.33097
upperneck -1.9224 -2.61151 9.39453
head 3.06066 -0.790533 3.57147
rclavicle -4.96962e-015 -9.14409e-015
rhumerus -12.5056 -14.5656 282.369
rradius 23.0437
rwrist 60.0713
rhand -28.3202 -10.0428
rfingers 7.12502
rthumb -1.69516 -40.0158
lclavicle -4.96962e-015 -9.14409e-015
lhumerus -189.365 -146.763 261.712
lradius 26.0157
lwrist -26.244
lhand -35.6224 2.96272
lfingers 7.12502
lthumb -8.74546 32.7615
rfemur -31.5768 -18.9605 11.4218
rtibia 83.3228
rfoot -31.6314 -8.22192
rtoes -24.0917
lfemur -30.3021 17.8134 -6.356
ltibia 82.0195
lfoot -44.9807 -10.1328
ltoes -21.8983
119
root 4.79078 14.2403 -17.7393 -0.0842294 2.33432 -3.53365
lowerback 20.3944 0.330751 1.19463
upperback 8.13635 0.812393 3.31946
thorax -2.62817 0.374015 2.67675
lowerneck -22.3786 -2.55136 -5.28122
upperneck -1.12921 -2.53351 9.05346
head 3.34995 -0.747569 3.46333
rclavicle 6.36111e-015 6.75868e-015
rhumerus -18.1391 -23.8608 284.999
rradius 20.999
rwrist 71.8718
rhand -27.9796 -8.47819
rfingers 7.12502
rthumb -1.36622 -38.4536
lclavicle 6.36111e-015 6.75868e-015
lhumerus -194.026 -151.204 264.603
lradius 22.303
lwrist -36.0875
lhand -34.1008 0.953051
lfingers 7.12502
lthumb -7.2769 30.8079
rfemur -31.0572 -19.2346 11.4875
rtibia 83.1984
rfoot -31.8538 -8.50904
rtoes -23.9837
lfemur -29.9069 17.5401 -6.13912
ltibia 82.002
lfoot -45.0999 -10.0935
ltoes -22.1915
120
root 4.80604 14.2581 -17.6633 -0.245731 2.36495 -3.74305
lowerback 20.1833 0.282365 1.45006
upperback 8.0266 0.788029 3.18608
thorax -2.63296 0.36894 2.39332
lowerneck -22.2732 -2.49541 -4.95861
upperneck -0.658145 -2.55371 8.68469
head 3.46838 -0.773536 3.29191
rclavicle -8.34896e-015 -2.78299e-015
rhumerus -24.6499 -28.3442 287.894
rradius 20.0757
rwrist 75.2603
rhand -27.1212 -8.46625
rfingers 7.12502
rthumb -0.537158 -38.4453
lclavicle -8.34896e-015 -2.78299e-015
lhumerus -198.713 -155.52 266.519
lradius 19.6363
lwrist -42.8349
lhand -33.0218 0.317885
lfingers 7.12502
lthumb -6.23524 30.2061
rfemur -30.3536 -19.4269 11.6055
rtibia 82.8544
rfoot -32.0097 -8.6052
rtoes -23.7002
lfemur -29.2534 17.3104 -5.77739
ltibia 81.7491
lfoot -45.1411 -10.038
ltoes -22.6198
121
root 4.81929 14.3011 -17.5772 -0.566616 2.33504 -3.87768
lowerback 19.8495 0.382418 1.24
upperback 8.09151 0.872492 3.31716
thorax -2.40048 0.405074 2.63443
lowerneck -22.3882 -2.46203 -5.14192
upperneck -0.176059 -2.47416 8.50059
head 3.62572 -0.735917 3.27118
rclavicle -1.07344e-014 -1.43125e-014
rhumerus -30.6326 -27.9218 290.244
rradius 19.6751
rwrist 73.7175
rhand -26.275 -9.02147
rfingers 7.12502
rthumb 0.280161 -39.001
lclavicle -1.07344e-014 -1.43125e-014
lhumerus -203.316 -158.641 268.5
lradius 17.5701
lwrist -44.2463
lhand -32.4006 0.659883
lfingers 7.12502
lthumb -5.63551 30.5649
rfemur -29.2119 -19.5371 11.5446
rtibia 82.2024
rfoot -32.105 -8.78419
rtoes -23.5114
lfemur -28.2273 17.0202 -5.4598
ltibia 81.2089
lfoot -45.1072 -10.1313
ltoes -22.8905
